<svg width="100" height="100" viewBox="0 0 100 100" fill="none" xmlns="http://www.w3.org/2000/svg">
<circle cx="49.9954" cy="49.9954" r="48.4954" fill="url(#paint0_linear)" stroke="url(#paint1_linear)" stroke-width="3"/>
<path d="M55.2427 25H34.8427C33.4901 25 32.1929 25.5373 31.2364 26.4938C30.28 27.4502 29.7427 28.7474 29.7427 30.1V70.9C29.7427 72.2526 30.28 73.5498 31.2364 74.5062C32.1929 75.4627 33.4901 76 34.8427 76H65.4427C66.7953 76 68.0925 75.4627 69.0489 74.5062C70.0054 73.5498 70.5427 72.2526 70.5427 70.9V40.3L55.2427 25Z" stroke="white" stroke-width="4.37143" stroke-linecap="round" stroke-linejoin="round"/>
<path d="M55.2428 25V40.3H70.5428" stroke="white" stroke-width="4.37143" stroke-linecap="round" stroke-linejoin="round"/>
<path d="M60.3428 53.0499H39.9427" stroke="white" stroke-width="4.37143" stroke-linecap="round" stroke-linejoin="round"/>
<path d="M60.3428 63.25H39.9427" stroke="white" stroke-width="4.37143" stroke-linecap="round" stroke-linejoin="round"/>
<path d="M45.0427 42.8498H42.4927H39.9427" stroke="white" stroke-width="4.37143" stroke-linecap="round" stroke-linejoin="round"/>
<defs>
<linearGradient id="paint0_linear" x1="49.9954" y1="0" x2="49.9954" y2="99.9909" gradientUnits="userSpaceOnUse">
<stop stop-color="#00B1FF"/>
<stop offset="1" stop-color="#0152E6"/>
</linearGradient>
<linearGradient id="paint1_linear" x1="49.9954" y1="0" x2="49.9954" y2="99.9909" gradientUnits="userSpaceOnUse">
<stop stop-color="#F4F9FF"/>
<stop offset="1" stop-color="white" stop-opacity="0.08"/>
</linearGradient>
</defs>
</svg>
