<svg width="79" height="79" viewBox="0 0 79 79" fill="none" xmlns="http://www.w3.org/2000/svg">
<rect width="78.4003" height="78.4003" rx="39.2002" fill="#FBDAFF"/>
<path fill-rule="evenodd" clip-rule="evenodd" d="M39.9128 38.2024C41.2738 38.2024 42.5791 37.6617 43.5414 36.6994C44.5038 35.737 45.0445 34.4317 45.0445 33.0707C45.0445 31.7097 44.5038 30.4045 43.5414 29.4421C42.5791 28.4797 41.2738 27.9391 39.9128 27.9391C38.5518 27.9391 37.2466 28.4797 36.2842 29.4421C35.3218 30.4045 34.7812 31.7097 34.7812 33.0707C34.7812 34.4317 35.3218 35.737 36.2842 36.6994C37.2466 37.6617 38.5518 38.2024 39.9128 38.2024ZM32.641 53.5974C30.0441 53.5974 27.8566 51.4144 28.8504 49.0152C29.4521 47.5624 30.3341 46.2424 31.446 45.1306C32.5579 44.0187 33.8779 43.1367 35.3306 42.535C36.7833 41.9332 38.3404 41.6235 39.9128 41.6235C41.4852 41.6235 43.0423 41.9332 44.495 42.535C45.9477 43.1367 47.2677 44.0187 48.3796 45.1306C49.4915 46.2424 50.3735 47.5624 50.9752 49.0152C51.969 51.4144 49.7815 53.5974 47.1846 53.5974H32.641Z" fill="#C779D0"/>
</svg>
