<svg width="100" height="100" viewBox="0 0 100 100" fill="none" xmlns="http://www.w3.org/2000/svg">
<circle cx="49.9954" cy="49.9954" r="48.4954" fill="url(#paint0_linear)" stroke="url(#paint1_linear)" stroke-width="3"/>
<path d="M72.9999 36.3335H27.6667C24.537 36.3335 22 38.8705 22 42.0001V70.3334C22 73.463 24.537 76.0001 27.6667 76.0001H72.9999C76.1295 76.0001 78.6666 73.463 78.6666 70.3334V42.0001C78.6666 38.8705 76.1295 36.3335 72.9999 36.3335Z" stroke="white" stroke-width="4.37143" stroke-linecap="round" stroke-linejoin="round"/>
<path d="M61.6666 75.9999V30.6667C61.6666 29.1638 61.0696 27.7224 60.0069 26.6597C58.9442 25.597 57.5028 25 55.9999 25H44.6666C43.1637 25 41.7224 25.597 40.6597 26.6597C39.597 27.7224 39 29.1638 39 30.6667V75.9999" stroke="white" stroke-width="4.37143" stroke-linecap="round" stroke-linejoin="round"/>
<defs>
<linearGradient id="paint0_linear" x1="49.9954" y1="0" x2="49.9954" y2="99.9909" gradientUnits="userSpaceOnUse">
<stop stop-color="#00B1FF"/>
<stop offset="1" stop-color="#0152E6"/>
</linearGradient>
<linearGradient id="paint1_linear" x1="49.9954" y1="0" x2="49.9954" y2="99.9909" gradientUnits="userSpaceOnUse">
<stop stop-color="#F4F9FF"/>
<stop offset="1" stop-color="white" stop-opacity="0.08"/>
</linearGradient>
</defs>
</svg>
