<svg width="100" height="100" viewBox="0 0 100 100" fill="none" xmlns="http://www.w3.org/2000/svg">
<circle cx="49.9954" cy="49.9954" r="48.4954" fill="url(#paint0_linear)" stroke="url(#paint1_linear)" stroke-width="3"/>
<path d="M60.6 30.1002H65.7C67.0526 30.1002 68.3498 30.6375 69.3062 31.5939C70.2627 32.5503 70.8 33.8476 70.8 35.2002V70.9002C70.8 72.2528 70.2627 73.55 69.3062 74.5064C68.3498 75.4628 67.0526 76.0002 65.7 76.0002H35.1C33.7474 76.0002 32.4502 75.4628 31.4938 74.5064C30.5373 73.55 30 72.2528 30 70.9002V35.2002C30 33.8476 30.5373 32.5503 31.4938 31.5939C32.4502 30.6375 33.7474 30.1002 35.1 30.1002H40.2" stroke="white" stroke-width="4.37143" stroke-linecap="round" stroke-linejoin="round"/>
<path d="M58.05 25H42.75C41.3417 25 40.2 26.1417 40.2 27.55V32.65C40.2 34.0583 41.3417 35.2 42.75 35.2H58.05C59.4583 35.2 60.6 34.0583 60.6 32.65V27.55C60.6 26.1417 59.4583 25 58.05 25Z" stroke="white" stroke-width="4.37143" stroke-linecap="round" stroke-linejoin="round"/>
<defs>
<linearGradient id="paint0_linear" x1="49.9954" y1="0" x2="49.9954" y2="99.9909" gradientUnits="userSpaceOnUse">
<stop stop-color="#00B1FF"/>
<stop offset="1" stop-color="#0152E6"/>
</linearGradient>
<linearGradient id="paint1_linear" x1="49.9954" y1="0" x2="49.9954" y2="99.9909" gradientUnits="userSpaceOnUse">
<stop stop-color="#F4F9FF"/>
<stop offset="1" stop-color="white" stop-opacity="0.08"/>
</linearGradient>
</defs>
</svg>
