<svg width="79" height="79" viewBox="0 0 79 79" fill="none" xmlns="http://www.w3.org/2000/svg">
<rect width="78.4003" height="78.4003" rx="39.2002" fill="#D6E2FF"/>
<path d="M25.6581 27.0837H34.2108C35.7231 27.0837 37.1733 27.6844 38.2427 28.7537C39.312 29.823 39.9127 31.2733 39.9127 32.7855V52.742C39.9127 51.6078 39.4621 50.5201 38.6602 49.7181C37.8582 48.9161 36.7705 48.4656 35.6363 48.4656H25.6581V27.0837Z" fill="#799EF8"/>
<path d="M54.1673 27.0837H45.6145C44.1023 27.0837 42.652 27.6844 41.5827 28.7537C40.5134 29.823 39.9127 31.2733 39.9127 32.7855V52.742C39.9127 51.6078 40.3632 50.5201 41.1652 49.7181C41.9672 48.9161 43.0549 48.4656 44.189 48.4656H54.1673V27.0837Z" fill="#799EF8"/>
</svg>
