<svg width="79" height="79" viewBox="0 0 79 79" fill="none" xmlns="http://www.w3.org/2000/svg">
<rect width="78.4003" height="78.4003" rx="39.2002" fill="#C4F8F4"/>
<path fill-rule="evenodd" clip-rule="evenodd" d="M54.1673 39.9128C54.1673 47.7854 47.7853 54.1674 39.9127 54.1674C32.0401 54.1674 25.6581 47.7854 25.6581 39.9128C25.6581 32.0402 32.0401 25.6582 39.9127 25.6582C47.7853 25.6582 54.1673 32.0402 54.1673 39.9128ZM35.3467 41.9026C34.8732 41.2779 33.9834 41.1526 33.3555 41.6234C32.7257 42.0958 32.5981 42.9893 33.0705 43.6191L34.2108 42.7638C33.0705 43.6191 33.0708 43.6195 33.0711 43.62L33.0719 43.621L33.0735 43.6232L33.0774 43.6283L33.0877 43.6418C33.0957 43.6521 33.1058 43.6651 33.1181 43.6806C33.1427 43.7116 33.1759 43.7528 33.2178 43.8027C33.3014 43.9023 33.4197 44.0372 33.5714 44.1955C33.8737 44.511 34.3155 44.9265 34.887 45.3421C36.0244 46.1693 37.7381 47.0402 39.9127 47.0402C42.0872 47.0402 43.8009 46.1693 44.9384 45.3421C45.5098 44.9265 45.9516 44.511 46.2539 44.1955C46.4056 44.0372 46.5239 43.9023 46.6075 43.8027C46.6494 43.7528 46.6827 43.7116 46.7072 43.6806L46.7238 43.6595L46.7376 43.6418L46.7479 43.6283L46.7518 43.6232L46.7534 43.621L46.7542 43.62C46.7545 43.6195 46.7549 43.6191 45.6145 42.7638L46.7549 43.6191C47.2272 42.9893 47.0996 42.0958 46.4698 41.6234C45.842 41.1526 44.9521 41.2779 44.4786 41.9026L44.472 41.911C44.4635 41.9217 44.4474 41.9418 44.4238 41.9699C44.3765 42.0262 44.3 42.114 44.1956 42.223C43.9856 42.4421 43.6701 42.7393 43.2615 43.0364C42.439 43.6347 41.3017 44.1893 39.9127 44.1893C38.5236 44.1893 37.3864 43.6347 36.5638 43.0364C36.1552 42.7393 35.8397 42.4421 35.6298 42.223C35.5254 42.114 35.4488 42.0262 35.4015 41.9699C35.3779 41.9418 35.3618 41.9217 35.3533 41.911L35.3467 41.9026ZM34.2108 35.6365C34.2108 34.8492 34.849 34.211 35.6363 34.211H35.6499C36.4372 34.211 37.0754 34.8492 37.0754 35.6365C37.0754 36.4238 36.4372 37.062 35.6499 37.062H35.6363C34.849 37.062 34.2108 36.4238 34.2108 35.6365ZM44.189 34.211C43.4018 34.211 42.7636 34.8492 42.7636 35.6365C42.7636 36.4238 43.4018 37.062 44.189 37.062H44.2027C44.9899 37.062 45.6281 36.4238 45.6281 35.6365C45.6281 34.8492 44.9899 34.211 44.2027 34.211H44.189Z" fill="#59CDA3"/>
</svg>
