<svg width="79" height="79" viewBox="0 0 79 79" fill="none" xmlns="http://www.w3.org/2000/svg">
<rect width="78.4003" height="78.4003" rx="39.2002" fill="#DBD0FF"/>
<path fill-rule="evenodd" clip-rule="evenodd" d="M29.9344 28.5087H32.7853V31.3597C32.7853 32.147 33.4235 32.7852 34.2107 32.7852C34.998 32.7852 35.6362 32.147 35.6362 31.3597V28.5087H44.1889V31.3597C44.1889 32.147 44.8272 32.7852 45.6144 32.7852C46.4017 32.7852 47.0399 32.147 47.0399 31.3597V28.5087H49.8909C51.4654 28.5087 52.7418 29.7851 52.7418 31.3596V35.6361C52.7418 35.6361 52.7417 35.6361 52.7417 35.6361H27.0835V31.3596C27.0835 29.7851 28.3599 28.5087 29.9344 28.5087ZM27.0835 38.487V51.3161C27.0835 52.8906 28.3599 54.167 29.9344 54.167H49.8909C51.4654 54.167 52.7418 52.8906 52.7418 51.3161V38.487C52.7418 38.487 52.7417 38.487 52.7417 38.487H27.0835Z" fill="#7854F7"/>
</svg>
