<svg width="100" height="100" viewBox="0 0 100 100" fill="none" xmlns="http://www.w3.org/2000/svg">
<circle cx="49.9954" cy="49.9954" r="48.4954" fill="url(#paint0_linear)" stroke="url(#paint1_linear)" stroke-width="3"/>
<path d="M25 27.9999H40C42.6522 27.9999 45.1957 29.0535 47.0711 30.9289C48.9464 32.8042 50 35.3478 50 37.9999V72.9999C50 71.0108 49.2098 69.1032 47.8033 67.6966C46.3968 66.2901 44.4891 65.4999 42.5 65.4999H25V27.9999Z" stroke="white" stroke-width="3.85714" stroke-linecap="round" stroke-linejoin="round"/>
<path d="M74.9999 27.9999H59.9999C57.3478 27.9999 54.8042 29.0535 52.9289 30.9289C51.0535 32.8042 49.9999 35.3478 49.9999 37.9999V72.9999C49.9999 71.0108 50.7901 69.1032 52.1966 67.6966C53.6032 66.2901 55.5108 65.4999 57.4999 65.4999H74.9999V27.9999Z" stroke="white" stroke-width="3.85714" stroke-linecap="round" stroke-linejoin="round"/>
<defs>
<linearGradient id="paint0_linear" x1="49.9954" y1="0" x2="49.9954" y2="99.9909" gradientUnits="userSpaceOnUse">
<stop stop-color="#00B1FF"/>
<stop offset="1" stop-color="#0152E6"/>
</linearGradient>
<linearGradient id="paint1_linear" x1="49.9954" y1="0" x2="49.9954" y2="99.9909" gradientUnits="userSpaceOnUse">
<stop stop-color="#F4F9FF"/>
<stop offset="1" stop-color="white" stop-opacity="0.08"/>
</linearGradient>
</defs>
</svg>
